PathFileType	4	(X/Y/Z)	C:/Users/beibeiliu/ov580/test_trc/User3\sequence.32_training_dense_right.trc
DataRate	CameraRate	NumFrames	NumMarkers	Units	OrigDataRate	OrigDataStartFrame	OrigNumFrames
120	120	14	19	mm	120	27	209
Frame#	Time	ThumbCMC			ThumbMCP			ThumbIP			ThumbTip			IndexMCP			IndexPIP			IndexTip			MiddleMCP			MiddlePIP			MiddleTip			RingMCP			RingPIP			RingTip			PinkyMCP			PinkyPIP			PinkyTip			BackHand1			BackHand2			BackHand3	
		X0	Y0	Z0	X1	Y1	Z1	X2	Y2	Z2	X3	Y3	Z3	X4	Y4	Z4	X5	Y5	Z5	X6	Y6	Z6	X7	Y7	Z7	X8	Y8	Z8	X9	Y9	Z9	X10	Y10	Z10	X11	Y11	Z11	X12	Y12	Z12	X13	Y13	Z13	X14	Y14	Z14	X15	Y15	Z15	X16	Y16	Z16	X17	Y17	Z17	X18	Y18	Z18	
26	0.216667	143.287	-19.4712	28.9257	130.386	-28.5621	0.0928332	133.424	-36.4614	-30.0527	158.695	-42.0572	-45.3566	145.262	4.15914	-37.2529	137.014	-23.9422	-51.9463	133.897	-35.053	-18.4697	162.628	-5.07115	-44.7236	154.473	-38.668	-45.3194	162.537	-36.8647	-9.31426	177.702	-14.1214	-46.1888	167.831	-43.5389	-44.2031	170.95	-45.632	-10.4572	207.315	-8.11693	-35.3896	202.319	-4.90287	-55.1396	204.112	-2.68142	-75.7883	197.277	3.27807	9.12024	205.849	-5.83523	37.2367	171.054	8.2878	32.5167	
27	0.225	140.715	-20.6204	31.6713	128.398	-32.6999	-0.835691	134.895	-38.5644	-35.5697	155.269	-45.8396	-49.4399	146.342	3.0238	-39.2211	134.487	-24.3653	-48.5815	136.763	-32.0738	-13.6642	162.606	-4.7748	-45.3792	155.004	-36.8361	-46.7637	159.913	-31.0109	-6.06754	183.279	-11.2316	-42.8675	168.65	-39.9767	-46.8257	172.142	-45.5182	-12.507	206.889	-6.30073	-32.5472	209.477	-4.4333	-52.6177	204.312	2.95003	-76.2295	198.591	4.6594	8.54197	203.13	-3.78896	41.9457	170.104	9.2082	28.8429	
28	0.233333	141.909	-20.7486	27.9029	130.471	-31.1623	-5.26401	135.094	-38.2653	-32.5308	155.497	-43.9069	-51.2177	142.387	3.723	-40.8509	133.21	-24.4282	-47.681	139.469	-29.1342	-11.7268	161.924	-3.84915	-46.487	152.279	-33.6103	-48.0266	160.569	-31.8884	-7.36851	180.582	-11.116	-45.3246	172.281	-39.7433	-48.0279	170.68	-45.3662	-15.4614	205.788	-4.4981	-32.9754	206.528	-0.216897	-53.7719	209.785	4.32244	-73.2219	196.903	5.98303	11.5222	204.247	-4.62118	40.9011	166.713	9.64274	28.77	
29	0.241667	144.025	-21.6379	29.1809	130.973	-32.7208	-3.06026	134.529	-38.3945	-36.773	160.706	-40.404	-50.3958	146.683	3.27699	-42.281	136.614	-22.8301	-50.2419	140.746	-32.0795	-18.3505	164.116	-3.50786	-48.4195	156.518	-34.1005	-47.3673	159.984	-30.4735	-6.98362	183.498	-9.46455	-43.7114	172.518	-39.1408	-47.2989	170.151	-43.6191	-14.0979	205.887	-3.7419	-32.2854	207.237	0.920142	-55.7956	210.354	5.5642	-73.8153	198.005	6.56506	9.58958	205.983	-4.0136	39.9028	166.632	7.12753	32.0161	
30	0.25	142.158	-21.1336	26.8525	130.216	-29.671	-5.42623	138.118	-35.0155	-34.0984	161.296	-37.6153	-46.4155	143.853	6.74923	-40.0719	140.409	-21.8662	-52.9536	140.934	-35.9256	-24.7697	164.5	-2.63762	-47.2171	157.662	-34.4424	-48.8037	164.036	-33.9176	-10.4711	183.302	-8.44628	-46.0187	173.313	-37.3687	-48.9134	176.004	-42.4108	-13.1979	203.76	-1.40635	-33.3918	202.088	2.42459	-55.3237	205.066	7.01468	-74.038	198.45	6.23145	10.3517	202.803	-3.55619	37.4612	167.414	7.16648	31.5715	
31	0.258333	144.202	-21.0764	29.7714	132.667	-17.2801	-4.24802	143.969	-17.06	-31.2126	171.129	-22.0608	-41.8201	148.973	4.43383	-39.7836	140.549	-25.4206	-56.1957	143.02	-45.1073	-29.772	166.047	-3.01288	-49.7838	161.229	-34.8042	-53.9886	162.42	-41.2846	-12.319	182.554	-8.93903	-46.4764	178.219	-38.4876	-48.8012	174.209	-44.1974	-18.051	206.275	-0.659633	-33.8709	202.746	2.49772	-54.1311	201.212	7.85697	-76.4603	195.36	7.44988	9.74955	200.247	-1.30485	40.696	169.129	5.73578	29.5262	
32	0.266667	142.085	-21.8483	31.8565	132.168	-16.5764	-5.45874	144.713	-14.859	-35.136	172.757	-20.855	-42.0931	149.973	5.52157	-39.6707	138.962	-25.4657	-56.8047	138.709	-44.95	-34.6972	166.828	-0.950497	-46.1136	158.105	-34.317	-53.0565	166.135	-41.0564	-14.6457	184.944	-7.54612	-44.805	177.835	-37.025	-50.3983	178.131	-43.0769	-15.8665	205.855	-0.519415	-31.7025	207.597	2.18486	-54.235	202.069	6.51581	-79.1403	199.5	7.93148	11.4771	204.738	-3.45128	37.6136	169.551	7.24643	26.8934	
33	0.275	143.782	-22.2392	27.5893	130.796	-28.0457	-6.31451	142.079	-30.6819	-37.1375	168.031	-31.6293	-53.405	149.731	6.93202	-43.2432	141.946	-19.3882	-58.7704	139.334	-42.5226	-35.9822	170.411	-1.05081	-45.4809	160.016	-33.0474	-50.672	165.754	-34.1017	-11.9302	186.271	-9.38576	-47.4104	179.653	-37.4521	-49.666	179.981	-44.3104	-17.9683	207.525	-0.232124	-34.226	207.847	1.9225	-54.3276	207.036	7.40095	-79.3183	200.035	8.83072	12.1056	202.912	-2.46895	36.9834	167.131	6.20543	30.721	
34	0.283333	145.557	-21.9179	24.0003	132.974	-31.0009	-10.5011	142.847	-35.6004	-35.6917	164.534	-38.3541	-57.4432	154.354	7.26626	-41.5475	139.624	-20.7761	-57.2122	139.774	-37.671	-31.8429	164.861	-1.31118	-48.8983	159.351	-31.2454	-51.868	166.826	-29.5098	-11.0903	184.989	-7.94982	-45.8527	179.416	-35.6593	-50.9513	174.028	-42.7198	-15.3407	207.533	-1.98263	-34.8088	208.302	-0.49433	-56.4274	205.363	4.28358	-77.5263	201.809	4.73393	11.6572	203.547	-5.34276	39.18	168.983	7.42999	27.2104	
35	0.291667	146.152	-22.5049	27.2805	133.666	-29.8956	-10.9406	137.825	-36.0684	-39.1941	160.985	-38.6185	-54.0301	148.493	9.34073	-44.6722	143.392	-17.1535	-57.6678	140.498	-34.2279	-29.2817	167.605	-0.183606	-51.8977	159.87	-30.7689	-54.5743	167.556	-33.099	-16.1998	188.817	-8.50933	-46.027	175.333	-37.5122	-50.8399	175.619	-44.0269	-16.139	207.477	-2.37025	-37.4254	207.396	-3.28523	-54.2446	206.894	-1.25345	-79.4352	199.312	7.44513	11.4338	204.823	-5.70879	40.7051	172.743	7.86371	27.8052	
36	0.3	145.765	-19.757	24.1342	133.758	-30.0218	-6.10395	136.78	-33.3237	-41.2891	156.198	-39.1048	-56.5643	153.163	9.93903	-44.1058	140.005	-16.0161	-58.7062	145.062	-33.1868	-31.7527	166.541	3.1621	-51.5126	160.59	-25.707	-59.381	162.502	-34.0116	-18.2618	188.273	-7.38764	-46.2152	177.175	-36.9461	-52.5205	172.959	-43.903	-20.6672	212.04	-7.11998	-34.4209	212.216	-5.13836	-61.0347	210.425	-3.44449	-76.8695	200.133	4.3287	10.155	203.828	-3.2477	35.9121	172.849	6.73272	29.9878	
37	0.308333	147.016	-21.5519	27.9923	131.022	-29.6077	-5.12828	133.55	-33.4025	-40.5423	154.109	-39.4115	-56.4604	153.189	10.0497	-41.9179	143.943	-14.4038	-60.4486	141.081	-32.6511	-30.5771	170.941	4.75228	-52.0019	163.797	-24.5862	-61.9798	165.492	-35.261	-23.2297	190.42	-5.92582	-46.7271	177.967	-35.8913	-54.7706	171.249	-45.1871	-26.0094	214.3	-8.24373	-36.4269	214.652	-7.46082	-60.0944	212.756	-6.20811	-81.169	202.8	4.84983	11.6422	208.259	-3.67535	35.7766	172.922	8.77839	24.9595	
38	0.316667	145.558	-20.534	29.2089	131.08	-28.5418	-4.05569	132.59	-32.6268	-38.1256	149.719	-40.2682	-54.4531	152.116	9.43736	-45.3565	140.628	-15.8875	-59.3896	143.656	-32.1198	-30.1567	173.915	4.81755	-50.9692	160.677	-22.0677	-63.3771	160.89	-36.1871	-23.7657	187.605	-6.1285	-49.1815	181.062	-32.5196	-58.8265	170.669	-45.8241	-28.4793	213.327	-8.35596	-33.7649	216.857	-9.20918	-54.5259	215.133	-7.68225	-76.9949	201.32	3.42811	11.0923	204.525	-3.08937	36.269	173.666	9.76498	26.4964	
39	0.325	141.393	-20.3784	29.3882	132.235	-27.0797	-7.05546	135.24	-32.1058	-36.0803	149.665	-40.2369	-52.7028	149.707	10.7481	-39.0655	138.49	-13.718	-60.061	140.892	-33.0348	-30.5884	168.572	6.08503	-52.0103	161.159	-24.892	-62.3901	163.642	-36.8294	-24.5289	190.158	-5.86775	-50.0193	179.149	-31.8391	-58.9134	171.089	-45.5026	-28.5435	210.375	-5.53772	-34.0204	216.236	-6.33968	-56.5913	216.932	-6.40219	-79.7175	203.338	4.30531	10.2171	207.029	-5.18149	38.9699	171.173	10.4368	27.1025	
